<?xml version="1.0" encoding="utf-8"?>
<!-- Generator: Adobe Illustrator 24.3.0, SVG Export Plug-In . SVG Version: 6.00 Build 0)  -->
<svg version="1.1" id="Layer_1" xmlns="http://www.w3.org/2000/svg" xmlns:xlink="http://www.w3.org/1999/xlink" x="0px" y="0px"
	 viewBox="0 0 237.6 109.76" style="enable-background:new 0 0 237.6 109.76;" xml:space="preserve">
<style type="text/css">
	.st0{fill:#FF244E;}
</style>
<path class="st0" d="M96.33,2"/>
<path class="st0" d="M79.6,30.19"/>
<path class="st0" d="M98.4,0L84.12,24.07c-0.29,0.47-0.86,1.19-0.86,2.69c0,2.14,1.74,3.88,3.88,3.88l8.18-0.06
	c7.34-0.48,8.05-6.97,8.05-6.97C104.22,15.32,96.95,18.35,98.4,0z"/>
<g>
	<path d="M63.23,74.23l-0.65,1.95h15.83l-6.48,33.58l31.22-49.41H90.28C78.41,60.35,67.27,64.21,63.23,74.23z"/>
	<path d="M108.67,38.31H94.79l-14.35,0.11c-5.92,0-7.31,2.11-8.35,6.37l-2.51,9.44h10.88h1.37c11.94,0,22.12-3.88,26.18-13.96
		L108.67,38.31z"/>
	<path d="M127.01,22.84c-5.85,0-9.3,4.13-10.59,9.75l-8.44,43.59h13.45l10.34-53.34H127.01z"/>
	<path d="M45.42,37.16c-3.12,0-5.83,0.28-8.14,0.83c-2.3,0.55-4.26,1.45-5.87,2.7c-1.61,1.25-2.92,2.89-3.92,4.93
		c-1.01,2.04-1.8,4.52-2.38,7.45l-4.46,23.11h13.46l4.39-22.75c0.38-2.11,0.98-3.55,1.8-4.32c0.82-0.77,2.16-1.15,4.03-1.15
		c1.39,0,2.39,0.26,2.99,0.79c0.6,0.53,0.9,1.35,0.9,2.45c0,0.53-0.07,1.15-0.22,1.87l-4.46,23.11h13.39l4.25-21.96
		c0.19-0.91,0.34-1.75,0.43-2.52c0.1-0.77,0.14-1.51,0.14-2.23C61.77,41.26,56.32,37.16,45.42,37.16z"/>
	<path d="M163.35,40.94c-2.86-1.85-6.97-2.77-12.35-2.77c-2.74,0-5.06,0.01-6.98,0.04c-1.92,0.02-3.72,0.06-5.4,0.11l-3.6,9.72
		c1.34-0.05,2.72-0.08,4.14-0.11c1.42-0.02,2.77-0.04,4.07-0.04s2.51,0,3.64,0c1.13,0,2.08,0,2.84,0c1.87,0,3.25,0.28,4.14,0.83
		c0.89,0.55,1.36,1.45,1.4,2.7c0,0.58-0.07,1.15-0.22,1.73l-0.29,1.3c-0.91-0.82-2.14-1.39-3.67-1.73c-1.54-0.34-3.31-0.5-5.33-0.5
		c-4.94,0-8.6,0.91-10.98,2.74c-2.38,1.83-3.92,4.39-4.64,7.7c-0.34,1.39-0.5,2.76-0.5,4.1c0,3.46,1.22,6,3.67,7.63
		c2.45,1.63,6.14,2.45,11.09,2.45c2.16,0,4.24-0.04,6.23-0.11c1.99-0.07,3.61-0.18,4.86-0.32c1.44-0.14,2.66-0.37,3.67-0.68
		c1.01-0.31,1.87-0.77,2.59-1.37c0.72-0.6,1.31-1.4,1.76-2.41c0.46-1.01,0.83-2.28,1.12-3.82l2.45-12.89
		c0.38-1.92,0.58-3.6,0.58-5.04C167.63,45.87,166.21,42.78,163.35,40.94z M152.91,63.62c-0.02,0.17-0.06,0.37-0.11,0.61l-0.72,3.53
		c-0.72,0.1-1.46,0.18-2.23,0.25c-0.77,0.07-1.63,0.11-2.59,0.11c-1.82,0-3.13-0.19-3.92-0.58c-0.79-0.38-1.19-1.1-1.19-2.16
		c0-0.58,0.07-1.2,0.22-1.87c0.24-1.34,0.79-2.27,1.66-2.77c0.86-0.5,2.14-0.76,3.82-0.76c1.63,0,2.89,0.22,3.78,0.65
		c0.89,0.43,1.33,1.25,1.33,2.45C152.95,63.27,152.93,63.45,152.91,63.62z"/>
	<path d="M200.75,38.2c-0.91-0.02-1.76-0.04-2.56-0.04s-1.45,0-1.98,0c-2.88,0-5.57,0.24-8.06,0.72c-2.5,0.48-4.73,1.38-6.7,2.7
		c-1.97,1.32-3.66,3.16-5.08,5.51c-1.42,2.35-2.46,5.4-3.13,9.14c-0.19,1.11-0.35,2.2-0.47,3.28c-0.12,1.08-0.18,2.1-0.18,3.06
		c0,2.06,0.29,3.94,0.86,5.62c0.58,1.68,1.54,3.12,2.88,4.32c1.34,1.2,3.13,2.14,5.36,2.81c2.23,0.67,5,1.01,8.32,1.01
		c1.25,0,2.59-0.01,4.03-0.04c1.44-0.03,2.86-0.06,4.25-0.11l3.96-10.44c-1.87,0.05-3.6,0.08-5.18,0.11
		c-1.58,0.02-3.07,0.04-4.46,0.04c-2.26,0-3.89-0.3-4.9-0.9c-1.01-0.6-1.51-1.88-1.51-3.85c0-1.06,0.19-2.62,0.58-4.68
		c0.29-1.63,0.67-2.95,1.15-3.96c0.48-1.01,1.07-1.8,1.76-2.38c0.7-0.58,1.51-0.97,2.45-1.19s2.05-0.32,3.35-0.32
		c1.44,0,2.71,0.01,3.82,0.04c1.1,0.02,2.18,0.06,3.24,0.11l3.96-10.44c-0.96,0-1.93-0.01-2.92-0.04
		C202.61,38.25,201.66,38.22,200.75,38.2z"/>
	<path d="M222.18,59.45h0.07l2.1-10.92h9.3l3.96-10.22h-11.29l2.01-10.44l-4.84,0.58c-5.9,0.45-9.31,4.23-10.59,9.85l-0.21,1.11
		l-0.01,0l-4.07,21.08c-0.14,0.82-0.26,1.61-0.36,2.38c-0.1,0.77-0.14,1.51-0.14,2.23c0,3.5,1.03,6.24,3.1,8.21
		c2.06,1.97,5.28,2.95,9.65,2.95c0.77,0,1.57,0,2.41,0c0.84,0,1.66,0,2.45,0s1.5-0.01,2.12-0.04c0.62-0.02,1.08-0.04,1.37-0.04
		l4.03-10.51c-0.34,0-0.8,0.01-1.4,0.04c-0.6,0.02-1.25,0.05-1.94,0.07c-0.7,0.03-1.39,0.04-2.09,0.04c-0.7,0-1.31,0-1.84,0
		c-1.54,0-2.62-0.28-3.24-0.83c-0.62-0.55-0.94-1.38-0.94-2.48c0-0.62,0.07-1.3,0.22-2.02L222.18,59.45z"/>
	<path d="M16.04,38.31c-5.85,0-9.3,4.13-10.59,9.75L0,76.18h13.46l7.34-37.87H16.04z"/>
</g>
</svg>
